<?xml version="1.0" encoding="UTF-8"?>
<svg xmlns="http://www.w3.org/2000/svg" xmlns:xlink="http://www.w3.org/1999/xlink" width="18pt" height="20pt" viewBox="0 0 18 20" version="1.1">
<g id="surface1">
<path style=" stroke:none;fill-rule:nonzero;fill:rgb(0%,0%,0%);fill-opacity:1;" d="M 17.398438 6.996094 C 17.398438 3.199219 14.835938 2.085938 14.835938 2.085938 C 12.324219 0.964844 5.65625 0.976562 3.167969 2.085938 C 3.167969 2.085938 0.605469 3.199219 0.605469 6.996094 C 0.605469 11.515625 0.339844 17.128906 4.851562 18.289062 C 6.476562 18.707031 7.875 18.796875 9.003906 18.734375 C 11.042969 18.625 12.1875 18.027344 12.1875 18.027344 L 12.121094 16.585938 C 12.121094 16.585938 10.660156 17.03125 9.023438 16.980469 C 7.398438 16.925781 5.6875 16.808594 5.421875 14.871094 C 5.394531 14.691406 5.382812 14.511719 5.382812 14.328125 C 8.824219 15.144531 11.757812 14.683594 12.566406 14.589844 C 14.820312 14.328125 16.785156 12.976562 17.035156 11.742188 C 17.429688 9.796875 17.398438 6.996094 17.398438 6.996094 Z M 14.378906 11.886719 L 12.503906 11.886719 L 12.503906 7.425781 C 12.503906 5.484375 9.933594 5.410156 9.933594 7.695312 L 9.933594 10.136719 L 8.074219 10.136719 L 8.074219 7.695312 C 8.074219 5.410156 5.5 5.484375 5.5 7.425781 L 5.5 11.886719 L 3.625 11.886719 C 3.625 7.117188 3.414062 6.109375 4.363281 5.050781 C 5.402344 3.921875 7.570312 3.847656 8.535156 5.289062 L 9 6.050781 L 9.46875 5.289062 C 10.4375 3.839844 12.605469 3.929688 13.640625 5.050781 C 14.589844 6.117188 14.378906 7.121094 14.378906 11.886719 Z M 14.378906 11.886719 "/>
</g>
</svg>
