<?xml version="1.0" encoding="UTF-8"?>
<svg xmlns="http://www.w3.org/2000/svg" xmlns:xlink="http://www.w3.org/1999/xlink" width="18pt" height="18pt" viewBox="0 0 18 18" version="1.1">
<g id="surface1">
<path style=" stroke:none;fill-rule:nonzero;fill:rgb(0%,0%,0%);fill-opacity:1;" d="M 15.46875 0.226562 L 0.84375 8.664062 C -0.367188 9.363281 -0.25 11.152344 1.042969 11.683594 L 5.0625 13.34375 L 5.0625 16.3125 C 5.0625 17.945312 7.144531 18.617188 8.105469 17.316406 L 9.648438 15.242188 L 13.582031 16.863281 C 13.789062 16.949219 14.007812 16.992188 14.222656 16.992188 C 14.511719 16.992188 14.796875 16.917969 15.054688 16.773438 C 15.503906 16.519531 15.8125 16.070312 15.894531 15.558594 L 17.980469 1.949219 C 18.195312 0.539062 16.683594 -0.472656 15.46875 0.230469 Z M 6.75 16.3125 L 6.75 14.042969 L 8.035156 14.570312 Z M 14.222656 15.304688 L 8.816406 13.070312 L 13.746094 5.960938 C 14.121094 5.414062 13.414062 4.78125 12.914062 5.214844 L 5.476562 11.691406 L 1.6875 10.125 L 16.3125 1.6875 Z M 14.222656 15.304688 "/>
</g>
</svg>
