<?xml version="1.0" encoding="UTF-8"?>
<svg xmlns="http://www.w3.org/2000/svg" xmlns:xlink="http://www.w3.org/1999/xlink" width="18pt" height="20pt" viewBox="0 0 18 20" version="1.1">
<g id="surface1">
<path style=" stroke:none;fill-rule:nonzero;fill:rgb(0%,0%,0%);fill-opacity:1;" d="M 5.144531 16.25 C 5.144531 17.628906 3.992188 18.75 2.574219 18.75 C 1.152344 18.75 0 17.628906 0 16.25 C 0 14.867188 1.152344 13.746094 2.574219 13.746094 C 3.996094 13.746094 5.144531 14.867188 5.144531 16.25 Z M 12.203125 18.09375 C 11.867188 12.054688 6.894531 7.210938 0.675781 6.886719 C 0.308594 6.867188 0 7.152344 0 7.511719 L 0 9.386719 C 0 9.714844 0.261719 9.992188 0.597656 10.011719 C 5.089844 10.296875 8.691406 13.789062 8.984375 18.167969 C 9.007812 18.496094 9.292969 18.75 9.628906 18.75 L 11.5625 18.75 C 11.929688 18.75 12.222656 18.449219 12.203125 18.09375 Z M 18 18.105469 C 17.664062 8.972656 10.101562 1.578125 0.664062 1.25 C 0.300781 1.238281 0 1.523438 0 1.875 L 0 3.753906 C 0 4.089844 0.273438 4.363281 0.621094 4.378906 C 8.300781 4.683594 14.46875 10.679688 14.78125 18.144531 C 14.796875 18.484375 15.078125 18.75 15.425781 18.75 L 17.355469 18.75 C 17.71875 18.75 18.011719 18.457031 18 18.105469 Z M 18 18.105469 "/>
</g>
</svg>
