<?xml version="1.0" encoding="UTF-8"?>
<svg xmlns="http://www.w3.org/2000/svg" xmlns:xlink="http://www.w3.org/1999/xlink" width="18pt" height="18pt" viewBox="0 0 18 18" version="1.1">
<g id="surface1">
<path style=" stroke:none;fill-rule:nonzero;fill:rgb(0%,0%,0%);fill-opacity:1;" d="M 9 0.28125 C 4.027344 0.28125 0 4.183594 0 9 C 0 13.816406 4.027344 17.71875 9 17.71875 C 13.972656 17.71875 18 13.816406 18 9 C 18 4.183594 13.972656 0.28125 9 0.28125 Z M 13.421875 6.253906 L 11.941406 12.996094 C 11.835938 13.476562 11.539062 13.589844 11.128906 13.367188 L 8.878906 11.761719 L 7.796875 12.773438 C 7.675781 12.886719 7.574219 12.988281 7.339844 12.988281 L 7.5 10.769531 L 11.671875 7.121094 C 11.851562 6.964844 11.632812 6.875 11.390625 7.03125 L 6.238281 10.175781 L 4.015625 9.503906 C 3.535156 9.355469 3.523438 9.035156 4.117188 8.808594 L 12.796875 5.570312 C 13.199219 5.429688 13.550781 5.664062 13.421875 6.253906 Z M 13.421875 6.253906 "/>
</g>
</svg>
